<svg height="512pt" viewBox="-52 0 512 512" width="512pt" xmlns="http://www.w3.org/2000/svg"><path d="m34.5 25c-5.515625 0-10 4.484375-10 10s4.484375 10 10 10 10-4.484375 10-10-4.484375-10-10-10zm0 0"/><path d="m69.5 25c-5.515625 0-10 4.484375-10 10s4.484375 10 10 10 10-4.484375 10-10-4.484375-10-10-10zm0 0"/><path d="m104.5 25c-5.515625 0-10 4.484375-10 10s4.484375 10 10 10 10-4.484375 10-10-4.484375-10-10-10zm0 0"/><path d="m380.5 0h-353c-15.164062 0-27.5 12.335938-27.5 27.5v412.007812c0 4.144532 3.359375 7.5 7.5 7.5s7.5-3.355468 7.5-7.5v-200.507812h126.289062c3.097657 8.730469 11.433594 15 21.210938 15h83c9.777344 0 18.113281-6.269531 21.210938-15h126.289062v245.5c0 6.894531-5.605469 12.5-12.5 12.5h-353c-6.894531 0-12.5-5.605469-12.5-12.5v-9.992188c0-4.140624-3.359375-7.5-7.5-7.5s-7.5 3.359376-7.5 7.5v9.992188c0 15.164062 12.335938 27.5 27.5 27.5h353c15.164062 0 27.5-12.335938 27.5-27.5v-457c0-15.164062-12.335938-27.5-27.5-27.5zm-135 239h-83c-4.136719 0-7.5-3.363281-7.5-7.5s3.363281-7.5 7.5-7.5h83c4.136719 0 7.5 3.363281 7.5 7.5s-3.363281 7.5-7.5 7.5zm147.5-15h-126.289062c-3.097657-8.730469-11.433594-15-21.210938-15h-83c-9.777344 0-18.113281 6.269531-21.210938 15h-126.289062v-154h350.5c4.140625 0 7.5-3.355469 7.5-7.5s-3.359375-7.5-7.5-7.5h-350.5v-27.5c0-6.894531 5.605469-12.5 12.5-12.5h353c6.894531 0 12.5 5.605469 12.5 12.5zm0 0"/><path d="m143.5 117c0-4.144531-3.359375-7.5-7.5-7.5h-56c-4.140625 0-7.5 3.355469-7.5 7.5s3.359375 7.5 7.5 7.5h56c4.140625 0 7.5-3.355469 7.5-7.5zm0 0"/><path d="m166 124.5h76c4.140625 0 7.5-3.355469 7.5-7.5s-3.359375-7.5-7.5-7.5h-76c-4.140625 0-7.5 3.355469-7.5 7.5s3.359375 7.5 7.5 7.5zm0 0"/><path d="m328 109.5h-56c-4.140625 0-7.5 3.355469-7.5 7.5s3.359375 7.5 7.5 7.5h56c4.140625 0 7.5-3.355469 7.5-7.5s-3.359375-7.5-7.5-7.5zm0 0"/><path d="m196.5 147c0-4.144531-3.359375-7.5-7.5-7.5h-71c-4.140625 0-7.5 3.355469-7.5 7.5s3.359375 7.5 7.5 7.5h71c4.140625 0 7.5-3.355469 7.5-7.5zm0 0"/><path d="m290 139.5h-71c-4.140625 0-7.5 3.355469-7.5 7.5s3.359375 7.5 7.5 7.5h71c4.140625 0 7.5-3.355469 7.5-7.5s-3.359375-7.5-7.5-7.5zm0 0"/><path d="m257 169.5h-101c-4.140625 0-7.5 3.355469-7.5 7.5s3.359375 7.5 7.5 7.5h101c4.140625 0 7.5-3.355469 7.5-7.5s-3.359375-7.5-7.5-7.5zm0 0"/><path d="m91 268.5c-22.605469 0-41 18.394531-41 41s18.394531 41 41 41 41-18.394531 41-41-18.394531-41-41-41zm0 67c-14.335938 0-26-11.664062-26-26s11.664062-26 26-26 26 11.664062 26 26-11.664062 26-26 26zm0 0"/><path d="m65 365.5c-4.140625 0-7.5 3.355469-7.5 7.5s3.359375 7.5 7.5 7.5h52c4.140625 0 7.5-3.355469 7.5-7.5s-3.359375-7.5-7.5-7.5zm0 0"/><path d="m204 268.5c-22.605469 0-41 18.394531-41 41s18.394531 41 41 41 41-18.394531 41-41-18.394531-41-41-41zm0 67c-14.335938 0-26-11.664062-26-26s11.664062-26 26-26 26 11.664062 26 26-11.664062 26-26 26zm0 0"/><path d="m237.5 373c0-4.144531-3.359375-7.5-7.5-7.5h-52c-4.140625 0-7.5 3.355469-7.5 7.5s3.359375 7.5 7.5 7.5h52c4.140625 0 7.5-3.355469 7.5-7.5zm0 0"/><path d="m317 268.5c-22.605469 0-41 18.394531-41 41s18.394531 41 41 41 41-18.394531 41-41-18.394531-41-41-41zm0 67c-14.335938 0-26-11.664062-26-26s11.664062-26 26-26 26 11.664062 26 26-11.664062 26-26 26zm0 0"/><path d="m291 365.5c-4.140625 0-7.5 3.355469-7.5 7.5s3.359375 7.5 7.5 7.5h52c4.140625 0 7.5-3.355469 7.5-7.5s-3.359375-7.5-7.5-7.5zm0 0"/><path d="m49 469.5c0 6.894531 5.605469 12.5 12.5 12.5h117c6.894531 0 12.5-5.605469 12.5-12.5v-57c0-6.894531-5.605469-12.5-12.5-12.5h-117c-6.894531 0-12.5 5.605469-12.5 12.5zm53.851562-2.5 11.839844-11.839844c2.925782-2.925781 7.683594-2.921875 10.609375 0l11.839844 11.839844zm-38.851562-52h112v52h-17.648438l-22.445312-22.445312c-8.773438-8.773438-23.046875-8.773438-31.820312 0l-22.449219 22.445312h-17.636719zm0 0"/><path d="m217 412.5v57c0 6.894531 5.605469 12.5 12.5 12.5h117c6.894531 0 12.5-5.605469 12.5-12.5v-57c0-6.894531-5.605469-12.5-12.5-12.5h-117c-6.894531 0-12.5 5.605469-12.5 12.5zm53.851562 54.5 11.839844-11.839844c2.925782-2.925781 7.683594-2.921875 10.609375 0l11.839844 11.839844zm-38.851562-52h112v52h-17.648438l-22.445312-22.445312c-8.773438-8.773438-23.046875-8.773438-31.820312 0l-22.449219 22.445312h-17.636719zm0 0"/></svg>